Coordinates
version=1
nRows=16
nColumns=42
inDegrees=yes

Units are S.I. units (second, meters, Newtons, ...)
If the header above contains a line with 'inDegrees', this indicates whether rotational values are in degrees (yes) or radians (no).

endheader
time	pelvis_tilt	pelvis_list	pelvis_rotation	pelvis_tx	pelvis_ty	pelvis_tz	hip_flexion_r	hip_adduction_r	hip_rotation_r	knee_angle_r	knee_adduction_r	knee_angle_r_beta	ankle_angle_r	subtalar_angle_r	mtp_angle_r	hip_flexion_l	hip_adduction_l	hip_rotation_l	knee_angle_l	knee_adduction_l	knee_angle_l_beta	ankle_angle_l	subtalar_angle_l	mtp_angle_l	lumbar_extension	lumbar_bending	lumbar_rotation	arm_flex_r	arm_add_r	arm_rot_r	elbow_flex_r	pro_sup_r	wrist_flex_r	wrist_dev_r	arm_flex_l	arm_add_l	arm_rot_l	elbow_flex_l	pro_sup_l	wrist_flex_l	wrist_dev_l
      0.81000000	     12.51017200	     -3.59988323	     -0.11480422	     -0.21697103	      0.86966556	     -0.29913315	    -29.34611463	      7.24125770	    -20.29508325	      8.10495211	     -2.86692006	      0.14145810	     15.60660137	     35.24151478	     -7.56875079	     14.92874039	     -4.84844574	    -25.63525569	     14.34295274	     -0.26926868	      0.25033175	     11.42035174	     19.33562166	     -7.56875079	    -25.58082496	      0.62139521	      3.80691956	      0.83180927	     -3.33607205	    -14.57049328	     57.98143745	     90.00000001	      0.00000000	      0.00000000	     -3.38371904	     -3.72662155	    -23.94466976	     35.51222079	     90.00000001	      0.00000000	      0.00000000
      0.82000000	     12.05670470	     -3.66772867	     -0.31651099	     -0.20479334	      0.86765436	     -0.29907544	    -29.43594963	      7.17160651	    -20.24309575	      8.65060691	     -3.15685795	      0.15098157	     15.51815721	     35.04595867	     -7.56844030	     15.40213721	     -4.65981427	    -25.30046983	     14.51601554	     -0.35304152	      0.25335227	     11.31557207	     19.37878252	     -7.56844030	    -24.97004995	      0.62222321	      3.98408078	      0.75011326	     -3.34332463	    -14.55802729	     57.87334102	     90.00000001	      0.00000000	      0.00000000	     -3.70496958	     -3.80144746	    -24.00631935	     35.34835833	     90.00000001	      0.00000000	      0.00000000
      0.83000000	     11.74167015	     -3.17635258	     -0.37312915	     -0.19211350	      0.86570946	     -0.29964834	    -29.46090858	      6.24346350	    -21.88035416	      9.83010908	     -3.07132218	      0.17156777	     15.45830888	     36.05380294	     -7.56541369	     15.96756248	     -3.73327368	    -25.49149917	     15.44000764	     -1.13418283	      0.26947897	     11.25843842	     20.17969845	     -7.56541369	    -24.41844514	      0.11158861	      3.83968529	      0.76471338	     -3.26751888	    -14.65475277	     57.17348245	     90.00000001	      0.00000000	      0.00000000	     -3.57603940	     -3.72428520	    -25.41104605	     34.33930391	     90.00000001	      0.00000000	      0.00000000
      0.84000000	     11.30689767	     -2.92555463	     -0.53500441	     -0.17944466	      0.86373649	     -0.29983684	    -29.51512053	      5.77224014	    -22.24007561	     10.56347927	     -3.28631048	      0.18436749	     15.30170764	     36.08838165	     -7.56378953	     16.56331233	     -3.12719493	    -24.97989674	     16.49966329	     -1.71438470	      0.28797345	     11.01439991	     19.61161155	     -7.56378953	    -23.78361519	     -0.20905797	      3.92260237	      0.57051213	     -3.24373858	    -14.65423183	     56.87684159	     90.00000001	      0.00000000	      0.00000000	     -3.80781163	     -3.79706958	    -25.65885869	     34.08417223	     90.00000001	      0.00000000	      0.00000000
      0.85000000	     10.89344882	     -2.79473124	     -0.88500128	     -0.16671173	      0.86204182	     -0.29972189	    -29.56916533	      5.44529329	    -22.04283920	     11.24038479	     -3.70393019	      0.19618172	     15.12982513	     35.82132176	     -7.56337284	     16.91455645	     -2.67011274	    -24.09714175	     17.33509351	     -2.21135596	      0.30255446	     10.75888383	     19.50128222	     -7.56337284	    -23.18536533	     -0.47219776	      4.26132700	      0.29583655	     -3.24569052	    -14.66554429	     56.66969740	     90.00000001	      0.00000000	      0.00000000	     -4.08614178	     -3.87614002	    -25.72835336	     34.00950299	     90.00000001	      0.00000000	      0.00000000
      0.86000000	     10.50799989	     -2.10610920	     -0.84857576	     -0.15377305	      0.86030140	     -0.30045124	    -29.59237868	      4.46010818	    -23.01862768	     12.20357035	     -3.69818862	      0.21299248	     14.54442220	     35.63752369	     -7.56214671	     17.73407812	     -1.54085270	    -23.78939496	     19.27977398	     -3.24242920	      0.33649553	     10.21057341	     17.85418868	     -7.56214671	    -22.59925082	     -1.17944109	      3.99493640	      0.14335387	     -3.12495130	    -14.88147464	     56.18089972	     90.00000001	      0.00000000	      0.00000000	     -4.22796854	     -3.99391848	    -26.05689895	     33.64972745	     90.00000001	      0.00000000	      0.00000000
      0.87000000	     10.20326145	     -1.51207012	     -1.00225460	     -0.14088544	      0.85898571	     -0.30087472	    -29.61687606	      3.53922847	    -23.50504190	     13.25077672	     -3.83104289	      0.23126968	     13.92429379	     35.49169839	     -7.56113876	     18.24247412	     -0.56849326	    -23.01753181	     20.92925042	     -4.02925997	      0.36528433	      9.73686764	     16.51183855	     -7.56113876	    -22.14496347	     -1.86048594	      3.95997315	     -0.05209987	     -3.01702820	    -15.06512606	     55.76948624	     90.00000001	      0.00000000	      0.00000000	     -4.41647016	     -4.10272310	    -26.34002688	     33.47851504	     90.00000001	      0.00000000	      0.00000000
      0.88000000	     10.08178363	     -0.37673486	     -1.19447721	     -0.12808296	      0.85835972	     -0.30164468	    -29.61798373	      1.90667320	    -24.89513850	     14.67782097	     -4.04452224	      0.25617630	     13.14550928	     36.19402191	     -7.55694862	     18.06718694	      1.27705508	    -20.46444762	     21.73114177	     -4.26798623	      0.37927997	      8.51715435	     11.67402622	     -7.55694862	    -21.92776559	     -3.12168939	      3.82377828	     -0.21639025	     -2.83597491	    -15.42510101	     55.20980666	     90.00000001	      0.00000000	      0.00000000	     -4.40825139	     -4.11395770	    -27.22353927	     33.37767396	     90.00000001	      0.00000000	      0.00000000
      0.89000000	      9.90455077	      0.14332217	     -1.40249635	     -0.11532686	      0.85780000	     -0.30181749	    -29.64271196	      1.22489474	    -24.56509071	     15.69856530	     -4.47492237	      0.27399165	     12.46236936	     35.59284547	     -7.55634967	     18.40971130	      2.00553857	    -19.46791604	     23.57163903	     -4.72311291	      0.41140271	      8.42109607	     11.12929971	     -7.55634967	    -21.67606140	     -3.78329094	      3.98026566	     -0.48535060	     -2.81673608	    -15.47533900	     54.79579471	     90.00000001	      0.00000000	      0.00000000	     -4.47679528	     -4.21996259	    -27.23504752	     33.32854074	     90.00000001	      0.00000000	      0.00000000
      0.90000000	      9.82311371	      1.23248850	     -1.45329563	     -0.10242213	      0.85768510	     -0.30269060	    -29.62012940	     -0.27446878	    -25.29569935	     17.17262875	     -4.59898062	      0.29971891	     10.53008492	     34.80150862	     -7.55207709	     18.34233103	      3.60681437	    -16.79568673	     25.03315926	     -4.45368958	      0.43691105	      7.57538501	      4.80388065	     -7.55207709	    -21.52769967	     -4.94768217	      3.65126874	     -0.60510736	     -2.59230859	    -15.84858569	     54.06339646	     90.00000001	      0.00000000	      0.00000000	     -4.58276387	     -4.35656760	    -27.47051119	     33.29076786	     90.00000001	      0.00000000	      0.00000000
      0.91000000	      9.84409933	      2.05010323	     -1.61646769	     -0.08959497	      0.85795936	     -0.30318746	    -29.60858686	     -1.36701501	    -25.01841854	     18.61024436	     -4.91139883	      0.32481004	      8.69656149	     33.41184759	     -7.54845566	     18.16307998	      4.68546534	    -14.81602528	     26.55012197	     -4.08546767	      0.46338705	      7.38212148	      1.16302399	     -7.54845566	    -21.51778464	     -5.88641687	      3.59141709	     -0.79459597	     -2.48417243	    -16.06417936	     53.43640925	     90.00000001	      0.00000000	      0.00000000	     -4.63917041	     -4.46199599	    -27.54403981	     33.34087296	     90.00000001	      0.00000000	      0.00000000
      0.92000000	      9.97589165	      2.82357240	     -1.78667228	     -0.07681911	      0.85862017	     -0.30368676	    -29.58896167	     -2.38473033	    -24.21195384	     20.21286785	     -5.19633327	      0.35278110	      6.53957766	     31.34386878	     -7.54528246	     17.70685666	      5.67806738	    -12.87453368	     27.81153365	     -3.50108739	      0.48540283	      7.33820327	     -2.27883462	     -7.54528246	    -21.64377244	     -6.77508892	      3.52320307	     -0.96842519	     -2.39030286	    -16.27193441	     52.80059970	     90.00000001	      0.00000000	      0.00000000	     -4.67883842	     -4.55447920	    -27.55712592	     33.45275155	     90.00000001	      0.00000000	      0.00000000
      0.93000000	     10.22309806	      3.51371094	     -2.00666602	     -0.06411182	      0.85964512	     -0.30417228	    -29.54726034	     -3.31562924	    -22.93458823	     21.96646525	     -5.45468162	      0.38338714	      4.20739642	     28.65192837	     -7.54222778	     16.97290176	      6.54982977	    -11.18810085	     28.80289776	     -2.85308928	      0.50270540	      7.53954541	     -5.18068956	     -7.54222778	    -21.90003909	     -7.57329240	      3.51078729	     -1.12811457	     -2.35211434	    -16.45828566	     52.15146206	     90.00000001	      0.00000000	      0.00000000	     -4.70872970	     -4.60733377	    -27.50324176	     33.61783614	     90.00000001	      0.00000000	      0.00000000
      0.94000000	     10.65006020	      4.03079535	     -2.19134737	     -0.05144023	      0.86087692	     -0.30437542	    -29.44091958	     -4.12183490	    -21.98904098	     24.13319483	     -5.76026191	      0.42120371	      1.96335452	     27.50943282	     -7.54172304	     15.99464899	      7.08406091	    -10.68087847	     29.67592510	     -2.46025351	      0.51794260	      8.65685319	     -5.92735960	     -7.54172304	    -22.35927310	     -8.20953549	      3.48598908	     -1.30807307	     -2.33125791	    -16.56228620	     51.57199661	     90.00000001	      0.00000000	      0.00000000	     -4.69482960	     -4.65306858	    -27.48598183	     33.88771171	     90.00000001	      0.00000000	      0.00000000
      0.95000000	     11.09737513	      4.65189627	     -2.36511863	     -0.03913869	      0.86274919	     -0.30496781	    -29.38147597	     -4.79828132	    -19.11144965	     26.17452696	     -5.67705088	      0.45683168	     -1.10954813	     21.87617352	     -7.53846094	     14.58812444	      7.94619827	     -9.61421589	     29.65910017	     -1.98320409	      0.51764895	      8.82109638	     -8.02977058	     -7.53846094	    -22.90789102	     -8.88661766	      3.35624930	     -1.38611081	     -2.29193756	    -16.77227592	     50.89407912	     90.00000001	      0.00000000	      0.00000000	     -4.67801528	     -4.71064351	    -27.19735711	     34.18653092	     90.00000001	      0.00000000	      0.00000000
      0.96000000	     11.71149579	      5.25012670	     -2.63136148	     -0.02680391	      0.86458647	     -0.30535449	    -29.12268748	     -5.70527577	    -17.62166913	     28.77983182	     -5.85481435	      0.50230282	     -3.63331309	     19.70593970	     -7.53757018	     12.96483821	      8.67830114	     -9.81006063	     29.52163578	     -1.91819110	      0.51524975	      9.93203498	     -7.97170651	     -7.53757018	    -23.60043731	     -9.57188894	      3.21866197	     -1.46513781	     -2.29280605	    -16.86491928	     50.27996607	     90.00000001	      0.00000000	      0.00000000	     -4.68765084	     -4.72965430	    -27.07055959	     34.59918686	     90.00000001	      0.00000000	      0.00000000
